<svg xmlns="http://www.w3.org/2000/svg" xmlns:xlink="http://www.w3.org/1999/xlink" id="_x32_" x="0" y="0" version="1.1" viewBox="0 0 512 512" style="width:256px;height:256px;opacity:1" xml:space="preserve"><style type="text/css">.st0{fill:#4b4b4b}</style><g><path d="M378.402,0H133.58C86.231,0,47.697,38.543,47.697,85.892v340.233c0,47.35,38.534,85.875,85.883,85.875h205.698 h13.175l9.327-9.292l93.222-93.24l9.301-9.31v-13.166v-301.1C464.303,38.543,425.769,0,378.402,0z M432.508,386.992H384.36 c-24.89,0-45.082,20.184-45.082,45.074v48.131H133.58c-29.867,0-54.08-24.213-54.08-54.072V85.892 c0-29.876,24.213-54.088,54.08-54.088h244.822c29.876,0,54.106,24.213,54.106,54.088V386.992z" class="st0" style="fill:#4b4b4b"/><path d="M297.613,278.398c-11.812,8.268-26.15,13.132-41.613,13.132c-15.472,0-29.811-4.864-41.617-13.132 c-20.644,8.858-33.319,24.456-41.057,38.213c-10.27,18.255-2.219,44.084,15.541,44.084c17.76,0,67.134,0,67.134,0 s49.368,0,67.128,0c17.76,0,25.815-25.828,15.542-44.084C330.932,302.854,318.253,287.256,297.613,278.398z" class="st0" style="fill:#4b4b4b"/><path d="M256,274.246c30.322,0,54.896-24.56,54.896-54.888V206.21c0-30.327-24.574-54.905-54.896-54.905 c-30.328,0-54.905,24.578-54.905,54.905v13.148C201.095,249.686,225.673,274.246,256,274.246z" class="st0" style="fill:#4b4b4b"/></g></svg>